<?xml version="1.0" encoding="utf-8"?>
<!-- Generator: Adobe Illustrator 26.2.1, SVG Export Plug-In . SVG Version: 6.00 Build 0)  -->
<svg version="1.1" id="Layer_1" xmlns="http://www.w3.org/2000/svg" xmlns:xlink="http://www.w3.org/1999/xlink" x="0px" y="0px"
	 viewBox="0 0 329.3 131.1" style="enable-background:new 0 0 329.3 131.1;" xml:space="preserve">
<style type="text/css">
	.st0{fill:black;}
	.st1{fill:black;}
	.st2{font-family:'BodoniXT';}
	.st3{font-size:50.3449px;}
</style>
<g>
	<g>
		<g>
			<path class="st0" d="M-0.3,42.3C12.9,42.1,26,42,39.1,41.8l39.4-0.3c26.2-0.2,52.5-0.1,78.7-0.2c26.2,0.1,52.5,0.1,78.7,0.2
				l39.4,0.3c13.1,0.2,40.5,0.3,53.7,0.5c-13.1,0.2-40.5,0.3-53.7,0.5l-39.4,0.3c-26.2,0.2-52.5,0.1-78.7,0.2
				c-26.2-0.1-52.5-0.1-78.7-0.2l-39.4-0.3C26,42.6,12.9,42.5-0.3,42.3z"/>
		</g>
		<g>
			<path class="st0" d="M-0.3,89.4c13.1-0.2,26.2-0.3,39.4-0.5l39.4-0.3c26.2-0.2,52.5-0.1,78.7-0.2c26.2,0.1,52.5,0.1,78.7,0.2
				l39.4,0.3c13.1,0.2,40.5,0.3,53.7,0.5c-13.1,0.2-40.5,0.3-53.7,0.5l-39.4,0.3c-26.2,0.2-52.5,0.1-78.7,0.2
				c-26.2-0.1-52.5-0.1-78.7-0.2l-39.4-0.3C26,89.7,12.9,89.6-0.3,89.4z"/>
		</g>
	</g>
	<g>
		<g>
			<path class="st1" d="M286.2,23.2c0,0-0.1,0.1-0.3,0.3c-0.2,0.2-0.5,0.5-0.9,0.9c-0.9,0.7-2.3,1.6-4.4,1.8c-1,0.1-2.2,0.1-3.5-0.3
				c-1.2-0.4-2.5-1-3.6-2.1c-1-1-2-2.4-2.5-4c-0.6-1.6-0.8-3.4-0.5-5.2c0.2-1.8,0.9-3.7,2-5.4c1.1-1.7,2.7-3.1,4.6-4.1
				c1.9-1,4.1-1.5,6.4-1.4c2.3,0.1,4.5,0.9,6.5,2.1c0.5,0.3,1,0.6,1.4,1c0.2,0.2,0.5,0.4,0.7,0.5c0.2,0.2,0.4,0.3,0.7,0.6l1.2,1.2
				c0.2,0.2,0.4,0.4,0.6,0.6l0.5,0.7c0.4,0.5,0.7,1,1.1,1.5l0.8,1.6c0.3,0.5,0.5,1.1,0.7,1.7c0.2,0.6,0.4,1.1,0.5,1.8
				c1.2,4.8,0.2,10-2.4,14.2l-1,1.6l-1.2,1.4c-0.4,0.5-0.8,0.9-1.3,1.3c-0.5,0.4-0.9,0.9-1.4,1.2c-1,0.7-1.9,1.5-3,2.1
				c-1,0.7-2.1,1.1-3.3,1.6c-2.2,0.9-4.5,1.5-6.8,1.9c-2.3,0.4-4.6,0.6-6.8,0.6c-4.5,0-8.8-0.8-12.8-2c-3.9-1.2-7.4-2.9-10.5-4.7
				c-0.8-0.5-1.5-0.9-2.2-1.4c-0.7-0.5-1.4-0.9-2.1-1.4c-1.3-0.9-2.6-1.7-3.7-2.7c-1.1-0.9-2.2-1.7-3.2-2.5c-1-0.8-1.8-1.6-2.6-2.2
				c-1.6-1.3-2.7-2.5-3.5-3.3c-0.8-0.8-1.2-1.2-1.2-1.2s0.4,0.4,1.3,1.1c0.8,0.7,2,1.8,3.7,3.1c0.8,0.6,1.7,1.4,2.7,2.1
				c1,0.7,2.1,1.5,3.3,2.3c1.1,0.9,2.5,1.6,3.8,2.5c0.7,0.4,1.4,0.9,2.1,1.3c0.7,0.4,1.5,0.8,2.2,1.3c3.1,1.7,6.6,3.2,10.4,4.3
				c3.8,1.1,8,1.8,12.3,1.7c2.2,0,4.4-0.2,6.5-0.6c2.2-0.4,4.3-1,6.4-1.9c1-0.5,2.1-0.9,3-1.5c1-0.5,1.9-1.2,2.7-1.9
				c0.5-0.3,0.8-0.8,1.2-1.1c0.4-0.4,0.8-0.8,1.2-1.2l1.1-1.3l0.9-1.4c2.4-3.8,3.3-8.5,2.3-12.8c-0.1-0.5-0.3-1-0.5-1.6
				c-0.2-0.5-0.3-1-0.6-1.5l-0.7-1.4c-0.3-0.4-0.6-0.9-0.9-1.3l-0.5-0.6c-0.2-0.2-0.4-0.4-0.6-0.6l-1.2-1.2
				c-0.7-0.6-1.6-1.4-2.5-1.9c-1.8-1.1-3.7-1.8-5.7-2c-2-0.2-3.9,0.2-5.6,1c-1.7,0.9-3.2,2.1-4.2,3.5c-1,1.5-1.7,3.1-2,4.8
				c-0.6,3.4,0.6,6.5,2.5,8.6c1.9,2.1,4.5,2.7,6.5,2.5c2-0.1,3.5-0.9,4.4-1.5c0.4-0.3,0.8-0.6,1-0.8
				C286.1,23.3,286.2,23.2,286.2,23.2z"/>
		</g>
		<g>
			<path class="st1" d="M179.9,14.6c0,0,0.3,0.3,0.9,0.6c0.6,0.3,1.6,0.7,2.9,0.7c1.3,0.1,2.9-0.3,4.2-1.4c0.7-0.6,1.2-1.3,1.6-2.2
				c0.4-0.8,0.7-1.9,0.7-2.9c0.1-2.1-0.8-4.4-2.5-6c-0.8-0.8-1.9-1.5-3.1-1.9c-1.1-0.4-2.4-0.6-3.7-0.4c-2.5,0.3-4.9,2-6.5,4.1
				l-0.7,0.9c-0.2,0.3-0.3,0.6-0.5,0.9c-0.1,0.3-0.3,0.6-0.5,0.9l-0.3,1c-0.3,0.6-0.3,1.3-0.5,2c-0.1,0.3-0.1,0.7-0.1,1
				c0,0.3-0.1,0.7,0,1c0.1,2.8,1.1,5.5,3,7.6c1.8,2.1,4.2,3.5,6.8,4.1c0.6,0.1,1.3,0.3,1.9,0.3c0.7,0,1.4,0.1,2,0
				c1.2,0,2.5-0.3,3.7-0.7c2.3-0.8,4.5-2,6.4-3.1c1.9-1.2,3.7-2.3,5.2-3.2c1.6-0.9,3-1.8,4.1-2.4c1.1-0.7,2.1-1.1,2.7-1.4
				c0.6-0.3,1-0.5,1-0.5s-0.3,0.2-0.9,0.6c-0.6,0.4-1.5,0.9-2.6,1.7c-1.1,0.7-2.4,1.6-3.9,2.7c-1.5,1.1-3.1,2.3-5,3.6
				c-1.9,1.3-4,2.6-6.5,3.6c-1.3,0.5-2.6,0.8-4.1,0.9c-0.8,0.1-1.4,0-2.1,0c-0.8-0.1-1.5-0.2-2.2-0.3c-2.9-0.6-5.8-2.2-7.9-4.6
				c-2.1-2.3-3.4-5.5-3.5-8.8c-0.1-0.4,0-0.8,0-1.2c0-0.4,0-0.8,0.1-1.2c0.2-0.8,0.3-1.6,0.6-2.3l0.4-1.1c0.2-0.4,0.4-0.7,0.6-1.1
				c0.4-0.8,0.8-1.3,1.3-1.9c1.9-2.6,4.7-4.4,7.9-4.7c1.5-0.2,3.1,0,4.5,0.6c1.4,0.5,2.6,1.3,3.5,2.4c1.9,2,2.8,4.7,2.6,7.1
				c-0.1,1.2-0.4,2.3-1,3.3c-0.5,0.9-1.2,1.8-2,2.3c-1.6,1.2-3.4,1.4-4.7,1.2c-1.4-0.1-2.3-0.7-2.9-1
				C180.1,14.9,179.9,14.6,179.9,14.6z"/>
		</g>
		<g>
			<path class="st1" d="M220.3,23.2c0,0-0.3-0.3-0.9-0.6c-0.6-0.3-1.6-0.7-2.9-0.7c-1.3-0.1-2.9,0.3-4.2,1.4
				c-0.7,0.6-1.2,1.3-1.6,2.2c-0.4,0.8-0.7,1.9-0.7,2.9c-0.1,2.1,0.8,4.4,2.5,6c0.8,0.8,1.9,1.5,3.1,1.9c1.1,0.4,2.4,0.6,3.7,0.4
				c2.5-0.3,4.9-2,6.5-4.1l0.7-0.9c0.2-0.3,0.3-0.6,0.5-0.9c0.1-0.3,0.3-0.6,0.5-0.9l0.3-1c0.3-0.6,0.3-1.3,0.5-2
				c0.1-0.3,0.1-0.7,0.1-1c0-0.3,0.1-0.7,0-1c-0.1-2.8-1.1-5.5-3-7.6c-1.8-2.1-4.2-3.5-6.8-4.1c-0.6-0.1-1.3-0.3-1.9-0.3
				c-0.7,0-1.4-0.1-2-0.1c-1.2,0-2.5,0.3-3.7,0.7c-2.3,0.8-4.4,2-6.4,3.1c-1.9,1.2-3.7,2.3-5.2,3.2c-1.6,0.9-3,1.8-4.1,2.4
				c-1.1,0.7-2.1,1.1-2.7,1.4c-0.6,0.3-1,0.5-1,0.5s0.3-0.2,0.9-0.6c0.6-0.4,1.5-0.9,2.6-1.7c1.1-0.7,2.4-1.6,3.9-2.7
				c1.5-1.1,3.1-2.3,5-3.6c1.9-1.3,4-2.6,6.5-3.6c1.3-0.5,2.6-0.8,4.1-0.9c0.8-0.1,1.4,0,2.1,0c0.8,0.1,1.5,0.2,2.2,0.3
				c2.9,0.6,5.8,2.2,7.9,4.6c2.1,2.3,3.4,5.5,3.5,8.8c0.1,0.4,0,0.8,0,1.2c0,0.4,0,0.8-0.1,1.2c-0.2,0.8-0.3,1.6-0.6,2.3l-0.4,1.1
				c-0.2,0.4-0.4,0.7-0.6,1.1c-0.4,0.8-0.8,1.3-1.3,1.9c-1.9,2.6-4.7,4.4-7.9,4.7c-1.5,0.2-3.1,0-4.5-0.6c-1.4-0.5-2.6-1.3-3.5-2.4
				c-1.9-2-2.8-4.7-2.6-7.1c0.1-1.2,0.4-2.3,1-3.3c0.5-0.9,1.2-1.8,2-2.3c1.6-1.2,3.4-1.4,4.7-1.2c1.4,0.1,2.3,0.7,2.9,1
				C220.1,23,220.3,23.3,220.3,23.2z"/>
		</g>
		<g>
			<path class="st1" d="M247.8,15.6c0,0,0.1,0.4,0.1,1.1c0,0.7-0.2,1.7-0.7,2.9c-0.2,0.6-0.6,1.2-1,1.7c-0.2,0.3-0.5,0.6-0.7,0.8
				c-0.3,0.3-0.6,0.5-0.9,0.8c-0.3,0.2-0.6,0.5-1,0.7c-0.3,0.2-0.7,0.4-1.1,0.6c-0.4,0.2-0.8,0.3-1.1,0.5l-0.1,0.1l-0.2,0.1
				l-0.3,0.1l-0.6,0.2c-0.3,0.1-0.8,0.2-1.2,0.2c-0.4,0.1-0.9,0.1-1.3,0.1c-0.4,0-0.8,0-1.2-0.1c-0.4,0-0.8-0.1-1.2-0.2
				c-0.4-0.1-0.8-0.2-1.1-0.3c-0.4-0.1-0.7-0.3-1-0.4c-0.6-0.3-1.2-0.6-1.7-1c-0.5-0.3-0.9-0.7-1.3-1c-0.4-0.3-0.6-0.6-0.9-0.9
				c-0.5-0.5-0.7-0.9-0.7-0.9s1.3,0.9,3.4,1.8c0.3,0.1,0.5,0.2,0.8,0.3c0.3,0.1,0.6,0.2,0.9,0.3c0.3,0.1,0.6,0.2,0.9,0.2
				c0.3,0.1,0.6,0.1,1,0.2c0.3,0.1,0.7,0.1,1,0.1c0.3,0,0.7,0,1,0c0.3,0,0.7,0,1-0.1c0.3-0.1,0.6-0.1,1-0.2l0.6-0.1l0.3-0.1
				c0,0,0.2,0,0.1,0l0.1,0c0.3-0.1,0.7-0.2,1-0.4c0.3-0.1,0.6-0.3,0.9-0.4c0.3-0.2,0.6-0.3,0.9-0.5c0.3-0.2,0.5-0.4,0.8-0.6
				c0.2-0.2,0.5-0.4,0.7-0.6c0.4-0.4,0.8-0.9,1.1-1.3c0.3-0.4,0.6-0.9,0.8-1.3c0.2-0.4,0.4-0.8,0.5-1.1
				C247.7,16,247.8,15.6,247.8,15.6z"/>
		</g>
		<g>
			<path class="st1" d="M54.2,23.2c0,0,0.1,0.1,0.3,0.3c0.2,0.2,0.5,0.5,1,0.8c0.9,0.6,2.4,1.4,4.4,1.5c2,0.2,4.6-0.5,6.5-2.5
				c1.9-2,3-5.2,2.5-8.6c-0.3-1.7-0.9-3.3-2-4.8c-1-1.5-2.5-2.7-4.2-3.5c-1.7-0.8-3.7-1.2-5.6-1c-2,0.2-3.9,0.9-5.7,2
				c-0.9,0.5-1.8,1.3-2.5,1.9l-1.2,1.2c-0.2,0.2-0.4,0.4-0.6,0.6l-0.5,0.6c-0.3,0.4-0.6,0.8-0.9,1.3L45,14.4c-0.3,0.5-0.4,1-0.6,1.5
				c-0.2,0.5-0.4,1-0.5,1.6c-1,4.3-0.1,9,2.3,12.8l0.9,1.4l1.1,1.3c0.3,0.5,0.8,0.8,1.2,1.2c0.4,0.4,0.8,0.8,1.2,1.1
				c0.9,0.7,1.8,1.4,2.7,1.9c0.9,0.6,2,1.1,3,1.5c2.1,0.9,4.2,1.4,6.4,1.9c2.2,0.4,4.4,0.6,6.5,0.6c4.3,0,8.5-0.6,12.3-1.7
				c3.8-1.1,7.3-2.6,10.4-4.3c0.8-0.4,1.5-0.8,2.2-1.3c0.7-0.4,1.4-0.9,2.1-1.3c1.4-0.9,2.7-1.6,3.8-2.5c1.2-0.8,2.3-1.6,3.3-2.3
				c1-0.8,1.9-1.5,2.7-2.1c1.6-1.3,2.8-2.4,3.7-3.1c0.8-0.7,1.3-1.1,1.3-1.1s-0.4,0.4-1.2,1.2c-0.8,0.8-1.9,2-3.5,3.3
				c-0.8,0.7-1.6,1.4-2.6,2.2c-1,0.8-2.1,1.6-3.2,2.5c-1.1,0.9-2.4,1.7-3.7,2.7c-0.7,0.5-1.4,0.9-2.1,1.4c-0.7,0.5-1.5,0.9-2.2,1.4
				C89.5,38,86,39.7,82,40.9c-3.9,1.2-8.2,2.1-12.8,2c-2.3,0-4.6-0.2-6.8-0.6c-2.3-0.4-4.6-1-6.8-1.9c-1.1-0.5-2.2-0.9-3.3-1.6
				c-1.1-0.6-2-1.3-3-2.1c-0.5-0.4-0.9-0.8-1.4-1.2c-0.4-0.4-0.9-0.8-1.3-1.3l-1.2-1.4l-1-1.6c-2.6-4.2-3.6-9.4-2.4-14.2
				c0.1-0.6,0.3-1.2,0.5-1.8c0.2-0.6,0.4-1.2,0.7-1.7l0.8-1.6c0.3-0.5,0.7-1,1.1-1.5l0.5-0.7c0.2-0.2,0.4-0.4,0.6-0.6L47.5,8
				c0.3-0.3,0.5-0.4,0.7-0.6c0.2-0.2,0.4-0.4,0.7-0.5c0.5-0.4,0.9-0.7,1.4-1c2-1.2,4.2-2,6.5-2.1c2.3-0.2,4.5,0.4,6.4,1.4
				c1.9,1,3.5,2.4,4.6,4.1c1.1,1.7,1.8,3.5,2,5.4c0.3,1.8,0,3.7-0.5,5.2c-0.6,1.6-1.5,3-2.5,4c-1.1,1.1-2.3,1.8-3.6,2.1
				c-1.2,0.4-2.4,0.4-3.5,0.3c-2.1-0.2-3.6-1.1-4.4-1.8c-0.4-0.4-0.7-0.7-0.9-0.9C54.3,23.3,54.2,23.2,54.2,23.2z"/>
		</g>
		<g>
			<path class="st1" d="M160.5,14.6c0,0-0.2,0.3-0.8,0.7c-0.6,0.4-1.5,0.9-2.9,1c-1.3,0.2-3.1-0.1-4.7-1.2c-0.8-0.6-1.5-1.4-2-2.3
				c-0.6-1-0.9-2.1-1-3.3c-0.2-2.4,0.6-5.1,2.6-7.1c1-1,2.2-1.8,3.5-2.4c1.4-0.6,2.9-0.8,4.5-0.6c3.1,0.3,6,2.2,7.9,4.7
				c0.4,0.6,0.9,1.2,1.3,1.9c0.2,0.4,0.4,0.7,0.6,1.1l0.4,1.1c0.3,0.7,0.4,1.6,0.6,2.3c0.1,0.4,0.1,0.8,0.1,1.2c0,0.4,0.1,0.8,0,1.2
				c-0.1,3.2-1.4,6.4-3.5,8.8c-2.1,2.4-5,4-7.9,4.6c-0.8,0.1-1.4,0.2-2.2,0.3c-0.7,0-1.4,0.1-2.1,0c-1.5-0.1-2.8-0.5-4.1-0.9
				c-2.5-0.9-4.6-2.3-6.5-3.6c-1.9-1.3-3.5-2.5-5-3.6c-1.5-1.1-2.8-2-3.9-2.7c-1.1-0.7-2-1.3-2.6-1.7c-0.6-0.4-0.9-0.6-0.9-0.6
				s0.3,0.2,1,0.5c0.6,0.3,1.6,0.8,2.7,1.4c1.2,0.6,2.5,1.4,4.1,2.4c1.6,1,3.3,2,5.2,3.2c1.9,1.1,4,2.3,6.4,3.1
				c1.2,0.4,2.4,0.7,3.7,0.7c0.6,0.1,1.3,0,2,0c0.6-0.1,1.3-0.2,1.9-0.3c2.6-0.6,5-2.1,6.8-4.1c1.8-2,2.9-4.8,3-7.6
				c0.1-0.3,0-0.7,0-1c0-0.3,0-0.7-0.1-1c-0.2-0.7-0.2-1.4-0.5-2l-0.3-1c-0.1-0.3-0.3-0.6-0.5-0.9c-0.2-0.3-0.3-0.6-0.5-0.9L166,5.3
				c-1.6-2.2-4-3.8-6.5-4.1c-1.3-0.2-2.5,0-3.7,0.4c-1.2,0.4-2.2,1.1-3.1,1.9c-1.7,1.7-2.6,3.9-2.5,6c0,1,0.3,2.1,0.7,2.9
				c0.4,0.9,0.9,1.6,1.6,2.2c1.3,1.1,2.9,1.5,4.2,1.4c1.3,0,2.3-0.4,2.9-0.7C160.2,14.9,160.5,14.6,160.5,14.6z"/>
		</g>
		<g>
			<path class="st1" d="M120.1,23.2c0,0,0.2-0.3,0.8-0.7c0.6-0.4,1.5-0.9,2.9-1c1.3-0.2,3.1,0.1,4.7,1.2c0.8,0.6,1.5,1.4,2,2.3
				c0.6,1,0.9,2.1,1,3.3c0.2,2.4-0.6,5.1-2.6,7.1c-1,1-2.2,1.8-3.5,2.4c-1.4,0.6-2.9,0.8-4.5,0.6c-3.1-0.3-6-2.2-7.9-4.7
				c-0.4-0.6-0.9-1.2-1.3-1.9c-0.2-0.4-0.4-0.7-0.6-1.1l-0.4-1.1c-0.3-0.7-0.4-1.6-0.6-2.3c-0.1-0.4-0.1-0.8-0.1-1.2
				c0-0.4-0.1-0.8,0-1.2c0.1-3.2,1.4-6.4,3.5-8.8c2.1-2.4,5-4,7.9-4.6c0.8-0.1,1.4-0.2,2.2-0.3c0.7,0,1.4-0.1,2.1,0
				c1.5,0.1,2.8,0.5,4.1,0.9c2.5,0.9,4.6,2.3,6.5,3.6c1.9,1.3,3.5,2.5,5,3.6c1.5,1.1,2.8,2,3.9,2.7c1.1,0.7,2,1.3,2.6,1.7
				c0.6,0.4,0.9,0.6,0.9,0.6s-0.3-0.2-1-0.5c-0.6-0.3-1.6-0.8-2.7-1.4c-1.2-0.6-2.5-1.4-4.1-2.4c-1.6-1-3.3-2-5.2-3.2
				c-1.9-1.1-4-2.3-6.4-3.1c-1.2-0.4-2.4-0.7-3.7-0.7c-0.6-0.1-1.3,0-2,0.1c-0.6,0.1-1.3,0.2-1.9,0.3c-2.6,0.6-5,2.1-6.8,4.1
				c-1.8,2-2.9,4.8-3,7.6c-0.1,0.3,0,0.7,0,1c0,0.3,0,0.7,0.1,1c0.2,0.7,0.2,1.4,0.5,2l0.3,1c0.1,0.3,0.3,0.6,0.5,0.9
				c0.2,0.3,0.3,0.6,0.5,0.9l0.7,0.9c1.6,2.2,4,3.8,6.5,4.1c1.3,0.2,2.5,0,3.7-0.4c1.2-0.4,2.2-1.1,3.1-1.9c1.7-1.7,2.6-3.9,2.5-6
				c0-1-0.3-2.1-0.7-2.9c-0.4-0.9-0.9-1.6-1.6-2.2c-1.3-1.1-2.9-1.5-4.2-1.4c-1.3,0-2.3,0.4-2.9,0.7C120.3,23,120.1,23.3,120.1,23.2
				z"/>
		</g>
		<g>
			<path class="st1" d="M92.6,15.6c0,0,0.1,0.4,0.3,1c0.1,0.3,0.3,0.7,0.5,1.1c0.2,0.4,0.5,0.8,0.8,1.3c0.3,0.4,0.7,0.9,1.1,1.3
				c0.2,0.2,0.5,0.4,0.7,0.6c0.3,0.2,0.5,0.4,0.8,0.6c0.3,0.2,0.6,0.3,0.9,0.5c0.3,0.1,0.6,0.3,0.9,0.4c0.3,0.1,0.7,0.2,1,0.4l0.1,0
				c-0.1,0,0.1,0,0.1,0l0.3,0.1l0.6,0.1c0.4,0.1,0.7,0.1,1,0.2c0.3,0.1,0.7,0.1,1,0.1c0.3,0,0.7,0,1,0c0.3,0,0.7,0,1-0.1
				c0.3,0,0.7-0.1,1-0.2c0.3-0.1,0.6-0.1,0.9-0.2c0.3-0.1,0.6-0.2,0.9-0.3c0.3-0.1,0.6-0.2,0.8-0.3c2.1-0.9,3.4-1.8,3.4-1.8
				s-0.2,0.3-0.7,0.9c-0.2,0.3-0.5,0.6-0.9,0.9c-0.4,0.3-0.8,0.7-1.3,1c-0.5,0.4-1.1,0.7-1.7,1c-0.3,0.2-0.7,0.3-1,0.4
				c-0.3,0.1-0.7,0.2-1.1,0.3c-0.4,0.1-0.8,0.2-1.2,0.2c-0.4,0.1-0.8,0.1-1.2,0.1c-0.4,0-0.8,0-1.3-0.1c-0.4-0.1-0.9-0.1-1.2-0.2
				l-0.6-0.2l-0.3-0.1l-0.2-0.1L99,24.6c-0.4-0.2-0.8-0.3-1.1-0.5c-0.4-0.2-0.7-0.4-1.1-0.6c-0.3-0.2-0.7-0.5-1-0.7
				c-0.3-0.2-0.6-0.5-0.9-0.8c-0.3-0.3-0.5-0.6-0.7-0.8c-0.4-0.6-0.8-1.2-1-1.7c-0.5-1.1-0.6-2.2-0.7-2.9
				C92.5,16,92.6,15.6,92.6,15.6z"/>
		</g>
	</g>
	<g>
		<g>
			<path class="st1" d="M54.2,108.4c0,0,0.1-0.1,0.3-0.3c0.2-0.2,0.5-0.5,0.9-0.9c0.9-0.7,2.3-1.6,4.4-1.8c1-0.1,2.2-0.1,3.5,0.3
				c1.2,0.4,2.5,1,3.6,2.1c1,1,2,2.4,2.5,4c0.6,1.6,0.8,3.4,0.5,5.2c-0.2,1.8-0.9,3.7-2,5.4c-1.1,1.7-2.7,3.1-4.6,4.1
				c-1.9,1-4.1,1.5-6.4,1.4c-2.3-0.1-4.5-0.9-6.5-2.1c-0.5-0.3-1-0.6-1.4-1c-0.2-0.2-0.5-0.4-0.7-0.5c-0.2-0.2-0.4-0.3-0.7-0.6
				l-1.2-1.2c-0.2-0.2-0.4-0.4-0.6-0.6l-0.5-0.7c-0.4-0.5-0.7-1-1.1-1.5l-0.8-1.6c-0.3-0.5-0.5-1.1-0.7-1.7
				c-0.2-0.6-0.4-1.1-0.5-1.8c-1.2-4.8-0.2-10,2.4-14.2l1-1.6l1.2-1.4c0.4-0.5,0.8-0.9,1.3-1.3c0.5-0.4,0.9-0.9,1.4-1.2
				c1-0.7,1.9-1.5,3-2.1c1-0.7,2.1-1.1,3.3-1.6c2.2-0.9,4.5-1.5,6.8-1.9c2.3-0.4,4.6-0.6,6.8-0.6c4.5,0,8.8,0.8,12.8,2
				c3.9,1.2,7.4,2.9,10.5,4.7c0.8,0.5,1.5,0.9,2.2,1.4c0.7,0.5,1.4,0.9,2.1,1.4c1.3,0.9,2.6,1.7,3.7,2.7c1.1,0.9,2.2,1.7,3.2,2.5
				c1,0.8,1.8,1.6,2.6,2.2c1.6,1.3,2.7,2.5,3.5,3.3c0.8,0.8,1.2,1.2,1.2,1.2s-0.4-0.4-1.3-1.1c-0.8-0.7-2-1.8-3.7-3.1
				c-0.8-0.6-1.7-1.4-2.7-2.1c-1-0.7-2.1-1.5-3.3-2.3c-1.1-0.9-2.5-1.6-3.8-2.5c-0.7-0.4-1.4-0.9-2.1-1.3c-0.7-0.4-1.5-0.8-2.2-1.3
				c-3.1-1.7-6.6-3.2-10.4-4.3c-3.8-1.1-8-1.8-12.3-1.7c-2.2,0-4.4,0.2-6.5,0.6c-2.2,0.4-4.3,1-6.4,1.9c-1,0.5-2.1,0.9-3,1.5
				c-1,0.5-1.9,1.2-2.7,1.9c-0.5,0.3-0.8,0.8-1.2,1.1c-0.4,0.4-0.8,0.8-1.2,1.2l-1.1,1.3l-0.9,1.4c-2.4,3.8-3.3,8.5-2.3,12.8
				c0.1,0.5,0.3,1,0.5,1.6c0.2,0.5,0.3,1,0.6,1.5l0.7,1.4c0.3,0.4,0.6,0.9,0.9,1.3l0.5,0.6c0.2,0.2,0.4,0.4,0.6,0.6l1.2,1.2
				c0.7,0.6,1.6,1.4,2.5,1.9c1.8,1.1,3.7,1.8,5.7,2c2,0.2,3.9-0.2,5.6-1c1.7-0.9,3.2-2.1,4.2-3.5c1-1.5,1.7-3.1,2-4.8
				c0.6-3.4-0.6-6.5-2.5-8.6c-1.9-2.1-4.5-2.7-6.5-2.5c-2,0.1-3.5,0.9-4.4,1.5c-0.4,0.3-0.8,0.6-1,0.8
				C54.3,108.3,54.2,108.4,54.2,108.4z"/>
		</g>
		<g>
			<path class="st1" d="M160.5,116.9c0,0-0.3-0.3-0.9-0.6c-0.6-0.3-1.6-0.7-2.9-0.7c-1.3-0.1-2.9,0.3-4.2,1.4
				c-0.7,0.6-1.2,1.3-1.6,2.2c-0.4,0.8-0.7,1.9-0.7,2.9c-0.1,2.1,0.8,4.4,2.5,6c0.8,0.8,1.9,1.5,3.1,1.9c1.1,0.4,2.4,0.6,3.7,0.4
				c2.5-0.3,4.9-2,6.5-4.1l0.7-0.9c0.2-0.3,0.3-0.6,0.5-0.9c0.1-0.3,0.3-0.6,0.5-0.9l0.3-1c0.3-0.6,0.3-1.3,0.5-2
				c0.1-0.3,0.1-0.7,0.1-1c0-0.3,0.1-0.7,0-1c-0.1-2.8-1.1-5.5-3-7.6c-1.8-2.1-4.2-3.5-6.8-4.1c-0.6-0.1-1.3-0.3-1.9-0.3
				c-0.7,0-1.4-0.1-2-0.1c-1.2,0-2.5,0.3-3.7,0.7c-2.3,0.8-4.5,2-6.4,3.1c-1.9,1.2-3.7,2.3-5.2,3.2c-1.6,0.9-3,1.8-4.1,2.4
				c-1.1,0.7-2.1,1.1-2.7,1.4c-0.6,0.3-1,0.5-1,0.5s0.3-0.2,0.9-0.6c0.6-0.4,1.5-0.9,2.6-1.7c1.1-0.7,2.4-1.6,3.9-2.7
				c1.5-1.1,3.1-2.3,5-3.6c1.9-1.3,4-2.6,6.5-3.6c1.3-0.5,2.6-0.8,4.1-0.9c0.8-0.1,1.4,0,2.1,0c0.8,0.1,1.5,0.2,2.2,0.3
				c2.9,0.6,5.8,2.2,7.9,4.6c2.1,2.3,3.4,5.5,3.5,8.8c0.1,0.4,0,0.8,0,1.2c0,0.4,0,0.8-0.1,1.2c-0.2,0.8-0.3,1.6-0.6,2.3l-0.4,1.1
				c-0.2,0.4-0.4,0.7-0.6,1.1c-0.4,0.8-0.8,1.3-1.3,1.9c-1.9,2.6-4.7,4.4-7.9,4.7c-1.5,0.2-3.1,0-4.5-0.6c-1.4-0.5-2.6-1.3-3.5-2.4
				c-1.9-2-2.8-4.7-2.6-7.1c0.1-1.2,0.4-2.3,1-3.3c0.5-0.9,1.2-1.8,2-2.3c1.6-1.2,3.4-1.4,4.7-1.2c1.4,0.1,2.3,0.7,2.9,1
				C160.2,116.6,160.5,116.9,160.5,116.9z"/>
		</g>
		<g>
			<path class="st1" d="M120.1,108.3c0,0,0.3,0.3,0.9,0.6c0.6,0.3,1.6,0.7,2.9,0.7c1.3,0.1,2.9-0.3,4.2-1.4c0.7-0.6,1.2-1.3,1.6-2.2
				c0.4-0.8,0.7-1.9,0.7-2.9c0.1-2.1-0.8-4.4-2.5-6c-0.8-0.8-1.9-1.5-3.1-1.9c-1.1-0.4-2.4-0.6-3.7-0.4c-2.5,0.3-4.9,2-6.5,4.1
				l-0.7,0.9c-0.2,0.3-0.3,0.6-0.5,0.9c-0.1,0.3-0.3,0.6-0.5,0.9l-0.3,1c-0.3,0.6-0.3,1.3-0.5,2c-0.1,0.3-0.1,0.7-0.1,1
				c0,0.3-0.1,0.7,0,1c0.1,2.8,1.1,5.5,3,7.6c1.8,2.1,4.2,3.5,6.8,4.1c0.6,0.1,1.3,0.3,1.9,0.3c0.7,0,1.4,0.1,2,0.1
				c1.2,0,2.5-0.3,3.7-0.7c2.3-0.8,4.5-2,6.4-3.1c1.9-1.2,3.7-2.3,5.2-3.2c1.6-0.9,3-1.8,4.1-2.4c1.1-0.7,2.1-1.1,2.7-1.4
				c0.6-0.3,1-0.5,1-0.5s-0.3,0.2-0.9,0.6c-0.6,0.4-1.5,0.9-2.6,1.7c-1.1,0.7-2.4,1.6-3.9,2.7c-1.5,1.1-3.1,2.3-5,3.6
				c-1.9,1.3-4,2.6-6.5,3.6c-1.3,0.5-2.6,0.8-4.1,0.9c-0.8,0.1-1.4,0-2.1,0c-0.8-0.1-1.5-0.2-2.2-0.3c-2.9-0.6-5.8-2.2-7.9-4.6
				c-2.1-2.3-3.4-5.5-3.5-8.8c-0.1-0.4,0-0.8,0-1.2c0-0.4,0-0.8,0.1-1.2c0.2-0.8,0.3-1.6,0.6-2.3l0.4-1.1c0.2-0.4,0.4-0.7,0.6-1.1
				c0.4-0.8,0.8-1.3,1.3-1.9c1.9-2.6,4.7-4.4,7.9-4.7c1.5-0.2,3.1,0,4.5,0.6c1.4,0.5,2.6,1.3,3.5,2.4c1.9,2,2.8,4.7,2.6,7.1
				c-0.1,1.2-0.4,2.3-1,3.3c-0.5,0.9-1.2,1.8-2,2.3c-1.6,1.2-3.4,1.4-4.7,1.2c-1.4-0.1-2.3-0.7-2.9-1
				C120.3,108.6,120.1,108.3,120.1,108.3z"/>
		</g>
		<g>
			<path class="st1" d="M92.6,116c0,0-0.1-0.4-0.1-1.1c0-0.7,0.2-1.7,0.7-2.9c0.2-0.6,0.6-1.2,1-1.7c0.2-0.3,0.5-0.6,0.7-0.8
				c0.3-0.3,0.6-0.5,0.9-0.8c0.3-0.2,0.6-0.5,1-0.7c0.3-0.2,0.7-0.4,1.1-0.6c0.4-0.2,0.8-0.3,1.1-0.5l0.1-0.1l0.2-0.1l0.3-0.1
				l0.6-0.2c0.3-0.1,0.8-0.2,1.2-0.2c0.4-0.1,0.9-0.1,1.3-0.1c0.4,0,0.8,0,1.2,0.1c0.4,0,0.8,0.1,1.2,0.2c0.4,0.1,0.8,0.2,1.1,0.3
				c0.4,0.1,0.7,0.3,1,0.4c0.6,0.3,1.2,0.6,1.7,1c0.5,0.3,0.9,0.7,1.3,1c0.4,0.3,0.6,0.6,0.9,0.9c0.5,0.5,0.7,0.9,0.7,0.9
				s-1.3-0.9-3.4-1.8c-0.3-0.1-0.5-0.2-0.8-0.3c-0.3-0.1-0.6-0.2-0.9-0.3c-0.3-0.1-0.6-0.2-0.9-0.2c-0.3-0.1-0.6-0.1-1-0.2
				c-0.3-0.1-0.7-0.1-1-0.1c-0.3,0-0.7,0-1,0c-0.3,0-0.7,0-1,0.1c-0.3,0.1-0.6,0.1-1,0.2l-0.6,0.1l-0.3,0.1c0,0-0.2,0-0.1,0l-0.1,0
				c-0.3,0.1-0.7,0.2-1,0.4c-0.3,0.1-0.6,0.3-0.9,0.4c-0.3,0.2-0.6,0.3-0.9,0.5c-0.3,0.2-0.5,0.4-0.8,0.6c-0.2,0.2-0.5,0.4-0.7,0.6
				c-0.4,0.4-0.8,0.9-1.1,1.3c-0.3,0.4-0.6,0.9-0.8,1.3c-0.2,0.4-0.4,0.8-0.5,1.1C92.7,115.6,92.6,116,92.6,116z"/>
		</g>
		<g>
			<path class="st1" d="M286.2,108.4c0,0-0.1-0.1-0.3-0.3c-0.2-0.2-0.5-0.5-1-0.8c-0.9-0.6-2.4-1.4-4.4-1.5c-2-0.2-4.6,0.5-6.5,2.5
				c-1.9,2-3,5.2-2.5,8.6c0.3,1.7,0.9,3.3,2,4.8c1,1.5,2.5,2.7,4.2,3.5c1.7,0.8,3.7,1.2,5.6,1c2-0.2,3.9-0.9,5.7-2
				c0.9-0.5,1.8-1.3,2.5-1.9l1.2-1.2c0.2-0.2,0.4-0.4,0.6-0.6l0.5-0.6c0.3-0.4,0.6-0.8,0.9-1.3l0.7-1.4c0.3-0.5,0.4-1,0.6-1.5
				c0.2-0.5,0.4-1,0.5-1.6c1-4.3,0.1-9-2.3-12.8l-0.9-1.4l-1.1-1.3c-0.3-0.5-0.8-0.8-1.2-1.2c-0.4-0.4-0.8-0.8-1.2-1.1
				c-0.9-0.7-1.8-1.4-2.7-1.9c-0.9-0.6-2-1.1-3-1.5c-2.1-0.9-4.2-1.4-6.4-1.9c-2.2-0.4-4.4-0.6-6.5-0.6c-4.3,0-8.5,0.6-12.3,1.7
				c-3.8,1.1-7.3,2.6-10.4,4.3c-0.8,0.4-1.5,0.8-2.2,1.3c-0.7,0.4-1.4,0.9-2.1,1.3c-1.4,0.9-2.7,1.6-3.8,2.5
				c-1.2,0.8-2.3,1.6-3.3,2.3c-1,0.8-1.9,1.5-2.7,2.1c-1.6,1.3-2.8,2.4-3.7,3.1c-0.8,0.7-1.3,1.1-1.3,1.1s0.4-0.4,1.2-1.2
				c0.8-0.8,1.9-2,3.5-3.3c0.8-0.7,1.6-1.4,2.6-2.2c1-0.8,2.1-1.6,3.2-2.5c1.1-0.9,2.4-1.7,3.7-2.7c0.7-0.5,1.4-0.9,2.1-1.4
				c0.7-0.5,1.5-0.9,2.2-1.4c3.1-1.8,6.6-3.5,10.5-4.7c3.9-1.2,8.2-2.1,12.8-2c2.3,0,4.6,0.2,6.8,0.6c2.3,0.4,4.6,1,6.8,1.9
				c1.1,0.5,2.2,0.9,3.3,1.6c1.1,0.6,2,1.3,3,2.1c0.5,0.4,0.9,0.8,1.4,1.2c0.4,0.4,0.9,0.8,1.3,1.3l1.2,1.4l1,1.6
				c2.6,4.2,3.6,9.4,2.4,14.2c-0.1,0.6-0.3,1.2-0.5,1.8c-0.2,0.6-0.4,1.2-0.7,1.7l-0.8,1.6c-0.3,0.5-0.7,1-1.1,1.5l-0.5,0.7
				c-0.2,0.2-0.4,0.4-0.6,0.6l-1.2,1.2c-0.3,0.3-0.5,0.4-0.7,0.6c-0.2,0.2-0.4,0.4-0.7,0.5c-0.5,0.4-0.9,0.7-1.4,1
				c-2,1.2-4.2,2-6.5,2.1c-2.3,0.2-4.5-0.4-6.4-1.4c-1.9-1-3.5-2.4-4.6-4.1c-1.1-1.7-1.8-3.5-2-5.4c-0.3-1.8,0-3.7,0.5-5.2
				c0.6-1.6,1.5-3,2.5-4c1.1-1.1,2.3-1.8,3.6-2.1c1.2-0.4,2.4-0.4,3.5-0.3c2.1,0.2,3.6,1.1,4.4,1.8c0.4,0.4,0.7,0.7,0.9,0.9
				C286.1,108.3,286.2,108.4,286.2,108.4z"/>
		</g>
		<g>
			<path class="st1" d="M179.9,116.9c0,0,0.2-0.3,0.8-0.7c0.6-0.4,1.5-0.9,2.9-1c1.3-0.2,3.1,0.1,4.7,1.2c0.8,0.6,1.5,1.4,2,2.3
				c0.6,1,0.9,2.1,1,3.3c0.2,2.4-0.6,5.1-2.6,7.1c-1,1-2.2,1.8-3.5,2.4c-1.4,0.6-2.9,0.8-4.5,0.6c-3.1-0.3-6-2.2-7.9-4.7
				c-0.4-0.6-0.9-1.2-1.3-1.9c-0.2-0.4-0.4-0.7-0.6-1.1l-0.4-1.1c-0.3-0.7-0.4-1.6-0.6-2.3c-0.1-0.4-0.1-0.8-0.1-1.2
				c0-0.4-0.1-0.8,0-1.2c0.1-3.2,1.4-6.4,3.5-8.8c2.1-2.4,5-4,7.9-4.6c0.8-0.1,1.4-0.2,2.2-0.3c0.7,0,1.4-0.1,2.1,0
				c1.5,0.1,2.8,0.5,4.1,0.9c2.5,1,4.6,2.3,6.5,3.6c1.9,1.3,3.5,2.5,5,3.6c1.5,1.1,2.8,2,3.9,2.7c1.1,0.7,2,1.3,2.6,1.7
				c0.6,0.4,0.9,0.6,0.9,0.6s-0.3-0.2-1-0.5c-0.6-0.3-1.6-0.8-2.7-1.4c-1.2-0.6-2.5-1.4-4.1-2.4c-1.6-1-3.3-2-5.2-3.2
				c-1.9-1.1-4-2.3-6.4-3.1c-1.2-0.4-2.4-0.7-3.7-0.7c-0.6-0.1-1.3,0-2,0.1c-0.6,0.1-1.3,0.2-1.9,0.3c-2.6,0.6-5,2.1-6.8,4.1
				c-1.8,2-2.9,4.8-3,7.6c-0.1,0.3,0,0.7,0,1c0,0.3,0,0.7,0.1,1c0.2,0.7,0.2,1.4,0.5,2l0.3,1c0.1,0.3,0.3,0.6,0.5,0.9
				c0.2,0.3,0.3,0.6,0.5,0.9l0.7,0.9c1.6,2.2,4,3.8,6.5,4.1c1.3,0.2,2.5,0,3.7-0.4c1.2-0.4,2.2-1.1,3.1-1.9c1.7-1.7,2.6-3.9,2.5-6
				c0-1-0.3-2.1-0.7-2.9c-0.4-0.9-0.9-1.6-1.6-2.2c-1.3-1.1-2.9-1.5-4.2-1.4c-1.3,0-2.3,0.4-2.9,0.7
				C180.2,116.6,179.9,116.9,179.9,116.9z"/>
		</g>
		<g>
			<path class="st1" d="M220.3,108.3c0,0-0.2,0.3-0.8,0.7c-0.6,0.4-1.5,0.9-2.9,1c-1.3,0.2-3.1-0.1-4.7-1.2c-0.8-0.6-1.5-1.4-2-2.3
				c-0.6-1-0.9-2.1-1-3.3c-0.2-2.4,0.6-5.1,2.6-7.1c1-1,2.2-1.8,3.5-2.4c1.4-0.6,2.9-0.8,4.5-0.6c3.1,0.3,6,2.2,7.9,4.7
				c0.4,0.6,0.9,1.2,1.3,1.9c0.2,0.4,0.4,0.7,0.6,1.1l0.4,1.1c0.3,0.7,0.4,1.6,0.6,2.3c0.1,0.4,0.1,0.8,0.1,1.2c0,0.4,0.1,0.8,0,1.2
				c-0.1,3.2-1.4,6.4-3.5,8.8c-2.1,2.4-5,4-7.9,4.6c-0.8,0.1-1.4,0.2-2.2,0.3c-0.7,0-1.4,0.1-2.1,0c-1.5-0.1-2.8-0.5-4.1-0.9
				c-2.5-1-4.6-2.3-6.5-3.6c-1.9-1.3-3.5-2.5-5-3.6c-1.5-1.1-2.8-2-3.9-2.7c-1.1-0.7-2-1.3-2.6-1.7c-0.6-0.4-0.9-0.6-0.9-0.6
				s0.3,0.2,1,0.5c0.6,0.3,1.6,0.8,2.7,1.4c1.2,0.6,2.5,1.4,4.1,2.4c1.6,1,3.3,2,5.2,3.2c1.9,1.1,4,2.3,6.4,3.1
				c1.2,0.4,2.4,0.7,3.7,0.7c0.6,0.1,1.3,0,2-0.1c0.6-0.1,1.3-0.2,1.9-0.3c2.6-0.6,5-2.1,6.8-4.1c1.8-2,2.9-4.8,3-7.6
				c0.1-0.3,0-0.7,0-1c0-0.3,0-0.7-0.1-1c-0.2-0.7-0.2-1.4-0.5-2l-0.3-1c-0.1-0.3-0.3-0.6-0.5-0.9c-0.2-0.3-0.3-0.6-0.5-0.9
				l-0.7-0.9c-1.6-2.2-4-3.8-6.5-4.1c-1.3-0.2-2.5,0-3.7,0.4c-1.2,0.4-2.2,1.1-3.1,1.9c-1.7,1.7-2.6,3.9-2.5,6c0,1,0.3,2.1,0.7,2.9
				c0.4,0.9,0.9,1.6,1.6,2.2c1.3,1.1,2.9,1.5,4.2,1.4c1.3,0,2.3-0.4,2.9-0.7C220,108.6,220.3,108.3,220.3,108.3z"/>
		</g>
		<g>
			<path class="st1" d="M247.8,116c0,0-0.1-0.4-0.3-1c-0.1-0.3-0.3-0.7-0.5-1.1c-0.2-0.4-0.5-0.8-0.8-1.3c-0.3-0.4-0.7-0.9-1.1-1.3
				c-0.2-0.2-0.5-0.4-0.7-0.6c-0.3-0.2-0.5-0.4-0.8-0.6c-0.3-0.2-0.6-0.3-0.9-0.5c-0.3-0.1-0.6-0.3-0.9-0.4c-0.3-0.1-0.7-0.2-1-0.4
				l-0.1,0c0.1,0-0.1,0-0.1,0l-0.3-0.1l-0.6-0.1c-0.4-0.1-0.7-0.1-1-0.2c-0.3-0.1-0.7-0.1-1-0.1c-0.3,0-0.7,0-1,0
				c-0.3,0-0.7,0-1,0.1c-0.3,0-0.7,0.1-1,0.2c-0.3,0.1-0.6,0.1-0.9,0.2c-0.3,0.1-0.6,0.2-0.9,0.3c-0.3,0.1-0.6,0.2-0.8,0.3
				c-2.1,0.9-3.4,1.8-3.4,1.8s0.2-0.3,0.7-0.9c0.2-0.3,0.5-0.6,0.9-0.9c0.4-0.3,0.8-0.7,1.3-1c0.5-0.4,1.1-0.7,1.7-1
				c0.3-0.2,0.7-0.3,1-0.4c0.3-0.1,0.7-0.2,1.1-0.3c0.4-0.1,0.8-0.2,1.2-0.2c0.4-0.1,0.8-0.1,1.2-0.1c0.4,0,0.8,0,1.3,0.1
				c0.4,0.1,0.9,0.1,1.2,0.2l0.6,0.2l0.3,0.1l0.2,0.1l0.1,0.1c0.4,0.2,0.8,0.3,1.1,0.5c0.4,0.2,0.7,0.4,1.1,0.6
				c0.3,0.2,0.7,0.5,1,0.7c0.3,0.2,0.6,0.5,0.9,0.8c0.3,0.3,0.5,0.6,0.7,0.8c0.4,0.6,0.8,1.2,1,1.7c0.5,1.1,0.6,2.2,0.7,2.9
				C247.9,115.6,247.8,116,247.8,116z"/>
		</g>
	</g>
	<text transform="matrix(0.7168 0 0 1 58.2324 82.1689)" class="st1 st2 st3">RESTAURANT</text>
</g>
</svg>
